{"title":"Paranormal.Activity.3.TS.XviD-EMBER","uid":6782325,"size":754898354,"categoryP":"video","categoryS":"movies","magnet":"?xt=urn:btih:8a444ff8249d422d41cb9f9c80258211ccaf2199&amp;dn=Paranormal.Activity.3.TS.XviD-EMBER&amp;tr=udp%3A%2F%2Ftracker.openbittorrent.com%3A80&amp;tr=udp%3A%2F%2Fopen.demonii.com%3A1337&amp;tr=udp%3A%2F%2Ftracker.coppersurfer.tk%3A6969&amp;tr=udp%3A%2F%2Fexodus.desync.com%3A6969","seeders":1,"leechers":0,"uploader":"LegendET","files":4,"time":1319953732,"description":"Paranormal.Activity.3.TS.XviD-EMBER\n &lt;a href=&quot;\nhttp://www.imdb.com/title/tt1778304/&quot; rel=&quot;nofollow&quot; target=&quot;_NEW&quot;&gt;\nhttp://www.imdb.com/title/tt1778304/&lt;/a&gt;\n\nPlot:\nIn 1988, young sisters Katie and Kristi befriend an invisible entity who resides in their home.\n\nVideo Source                     : TNZ Thanks\nAudio Source                     : MiSTERE Thanks\n\nGeneral\nFormat                           : AVI\nFormat/Info                      : Audio Video Interleave\nFile size                        : 695 MiB\nDuration                         : 1h 18mn\nOverall bit rate                 : 1 235 Kbps\nWriting application              : VirtualDubMod 1.5.10.2 (build 2540/release)\nWriting library                  : VirtualDubMod build 2540/release\n\nVideo\nID                               : 0\nFormat                           : MPEG-4 Visual\nFormat profile                   : Advanced Simple@L5\nFormat settings, BVOP            : 2\nFormat settings, QPel            : No\nFormat settings, GMC             : No warppoints\nFormat settings, Matrix          : Default (H.263)\nMuxing mode                      : Packed bitstream\nCodec ID                         : XVID\nCodec ID/Hint                    : XviD\nDuration                         : 1h 18mn\nBit rate                         : 1 097 Kbps\nWidth                            : 656 pixels\nHeight                           : 288 pixels\nDisplay aspect ratio             : 2.25:1\nFrame rate                       : 25.000 fps\nColor space                      : YUV\nChroma subsampling               : 4:2:0\nBit depth                        : 8 bits\nScan type                        : Progressive\nCompression mode                 : Lossy\nBits/(Pixel*Frame)               : 0.232\nStream size                      : 618 MiB (89%)\nWriting library                  : XviD 64\n\nAudio\nID                               : 1\nFormat                           : MPEG Audio\nFormat version                   : Version 1\nFormat profile                   : Layer 3\nMode                             : Joint stereo\nMode extension                   : MS Stereo\nCodec ID                         : 55\nCodec ID/Hint                    : MP3\nDuration                         : 1h 18mn\nBit rate mode                    : Constant\nBit rate                         : 128 Kbps\nChannel(s)                       : 2 channels\nSampling rate                    : 44.1 KHz\nCompression mode                 : Lossy\nStream size                      : 72.1 MiB (10%)\nAlignment                        : Split accross interleaves\nInterleave, duration             : 40 ms (1.00 video frame)\nInterleave, preload duration     : 500 ms\nWriting library                  : LAME3.98r\nEncoding settings                : -m j -V 4 -q 2 -lowpass 17 -b 128\n\nNotes\nCropped the slight black border on the left and also cropped what looks like top of a chair at bottom left of the video, wasnt much there but it annoyed me, changed RGB levels alot, added saturation, HQ smoother, heavy denoiser and sharpened\n\nScreens\n &lt;a href=&quot;\nhttp://img231.imageshack.us/img231/8116/20870660.png&quot; rel=&quot;nofollow&quot; target=&quot;_NEW&quot;&gt;\nhttp://img231.imageshack.us/img231/8116/20870660.png&lt;/a&gt; &lt;a href=&quot;\nhttp://img651.imageshack.us/img651/1120/57930045.png&quot; rel=&quot;nofollow&quot; target=&quot;_NEW&quot;&gt;\nhttp://img651.imageshack.us/img651/1120/57930045.png&lt;/a&gt; &lt;a href=&quot;\nhttp://img607.imageshack.us/img607/6518/95978604.png&quot; rel=&quot;nofollow&quot; target=&quot;_NEW&quot;&gt;\nhttp://img607.imageshack.us/img607/6518/95978604.png&lt;/a&gt; &lt;a href=&quot;\nhttp://img710.imageshack.us/img710/5087/88221039.png&quot; rel=&quot;nofollow&quot; target=&quot;_NEW&quot;&gt;\nhttp://img710.imageshack.us/img710/5087/88221039.png&lt;/a&gt; &lt;a href=&quot;\nhttp://img651.imageshack.us/img651/3318/47125282.png&quot; rel=&quot;nofollow&quot; target=&quot;_NEW&quot;&gt;\nhttp://img651.imageshack.us/img651/3318/47125282.png&lt;/a&gt;\n","torrent":{"xt":"urn:btih:8a444ff8249d422d41cb9f9c80258211ccaf2199","amp;dn":"Paranormal.Activity.3.TS.XviD-EMBER","amp;tr":["udp%3A%2F%2Ftracker.openbittorrent.com%3A80","udp%3A%2F%2Fopen.demonii.com%3A1337","udp%3A%2F%2Ftracker.coppersurfer.tk%3A6969","udp%3A%2F%2Fexodus.desync.com%3A6969"],"infoHash":"8a444ff8249d422d41cb9f9c80258211ccaf2199","infoHashBuffer":{"type":"Buffer","data":[138,68,79,248,36,157,66,45,65,203,159,156,128,37,130,17,204,175,33,153]},"announce":[],"urlList":[]}}